<svg width="135" height="19" viewBox="0 0 135 19" fill="none" xmlns="http://www.w3.org/2000/svg">
<path d="M0.000390738 18.2598V4.39977H3.12039V18.2598H0.000390738ZM10.4885 18.4398C9.92852 18.4398 9.27518 18.4131 8.52852 18.3598C7.78185 18.3198 7.04852 18.2264 6.32852 18.0798V4.57977C7.04852 4.44643 7.79518 4.35977 8.56852 4.31977C9.35518 4.26643 10.0285 4.23976 10.5885 4.23976C12.1752 4.23976 13.5552 4.47977 14.7285 4.95977C15.9152 5.43977 16.8352 6.19977 17.4885 7.23977C18.1418 8.27977 18.4685 9.63977 18.4685 11.3198C18.4685 12.9198 18.1418 14.2464 17.4885 15.2998C16.8485 16.3531 15.9285 17.1398 14.7285 17.6598C13.5418 18.1798 12.1285 18.4398 10.4885 18.4398ZM10.6485 15.7598C12.2085 15.7598 13.3618 15.3664 14.1085 14.5798C14.8685 13.7931 15.2485 12.7064 15.2485 11.3198C15.2485 9.86643 14.8885 8.76643 14.1685 8.01977C13.4485 7.2731 12.3085 6.89977 10.7485 6.89977C10.5352 6.89977 10.3152 6.90643 10.0885 6.91976C9.86185 6.91976 9.64852 6.9331 9.44852 6.95977V15.7198C9.59518 15.7331 9.76185 15.7464 9.94852 15.7598C10.1485 15.7598 10.3818 15.7598 10.6485 15.7598ZM19.1863 18.2598C19.8797 16.2731 20.5263 14.4731 21.1263 12.8598C21.7397 11.2464 22.333 9.7531 22.9063 8.37977C23.493 7.00643 24.093 5.67977 24.7063 4.39977H27.6863C28.1397 5.35976 28.5863 6.34643 29.0263 7.35977C29.4663 8.3731 29.9063 9.43977 30.3463 10.5598C30.7863 11.6664 31.2397 12.8531 31.7063 14.1198C32.1863 15.3864 32.6863 16.7664 33.2063 18.2598H29.8663C29.7197 17.7798 29.553 17.2864 29.3663 16.7798C29.193 16.2731 29.0197 15.7664 28.8463 15.2598H23.4463C23.273 15.7664 23.093 16.2731 22.9063 16.7798C22.733 17.2864 22.573 17.7798 22.4263 18.2598H19.1863ZM24.1663 12.7798H28.1063C27.893 12.1798 27.6863 11.6064 27.4863 11.0598C27.2863 10.5131 27.093 10.0131 26.9063 9.55976C26.733 9.10643 26.5797 8.70643 26.4463 8.35976C26.313 8.0131 26.2063 7.73977 26.1263 7.53977C26.0597 7.73977 25.9597 8.0131 25.8263 8.35976C25.7063 8.70643 25.553 9.10643 25.3663 9.55976C25.193 10.0131 24.9997 10.5131 24.7863 11.0598C24.5863 11.6064 24.3797 12.1798 24.1663 12.7798ZM43.5851 18.5398C42.3584 18.5398 41.3651 18.4198 40.6051 18.1798C39.8584 17.9264 39.3051 17.6931 38.9451 17.4798L39.8251 14.9998C40.2384 15.2264 40.7451 15.4331 41.3451 15.6198C41.9584 15.7931 42.7051 15.8798 43.5851 15.8798C44.4651 15.8798 45.0584 15.7464 45.3651 15.4798C45.6717 15.1998 45.8251 14.8531 45.8251 14.4398C45.8251 14.1331 45.7317 13.8664 45.5451 13.6398C45.3584 13.4131 45.0584 13.1998 44.6451 12.9998C44.2317 12.7864 43.6784 12.5664 42.9851 12.3398C42.3851 12.1264 41.7917 11.8664 41.2051 11.5598C40.6184 11.2398 40.1317 10.8198 39.7451 10.2998C39.3717 9.77977 39.1851 9.0931 39.1851 8.23976C39.1851 7.38643 39.3917 6.6531 39.8051 6.03977C40.2317 5.4131 40.8251 4.9331 41.5851 4.59977C42.3451 4.2531 43.2451 4.07976 44.2851 4.07976C45.2184 4.07976 46.0251 4.17976 46.7051 4.37977C47.3851 4.57977 47.9451 4.79977 48.3851 5.03977L47.4851 7.49976C47.0984 7.29976 46.6651 7.12643 46.1851 6.97977C45.7184 6.81977 45.1517 6.73976 44.4851 6.73976C43.7384 6.73976 43.1984 6.84643 42.8651 7.05977C42.5451 7.25977 42.3851 7.5731 42.3851 7.99977C42.3851 8.31977 42.4917 8.58643 42.7051 8.79977C42.9184 9.0131 43.2051 9.19977 43.5651 9.35977C43.9251 9.51977 44.3317 9.67977 44.7851 9.83976C45.7451 10.1864 46.5384 10.5464 47.1651 10.9198C47.7917 11.2931 48.2584 11.7531 48.5651 12.2998C48.8851 12.8464 49.0451 13.5664 49.0451 14.4598C49.0451 15.3131 48.8451 16.0464 48.4451 16.6598C48.0451 17.2731 47.4384 17.7398 46.6251 18.0598C45.8251 18.3798 44.8117 18.5398 43.5851 18.5398ZM54.0057 18.5398C53.099 18.5398 52.319 18.4331 51.6657 18.2198C51.0124 17.9931 50.4724 17.7331 50.0457 17.4398L51.0857 15.0198C51.4724 15.2464 51.8857 15.4464 52.3257 15.6198C52.7657 15.7931 53.2457 15.8798 53.7657 15.8798C54.5257 15.8798 55.0724 15.6931 55.4057 15.3198C55.739 14.9464 55.9057 14.3198 55.9057 13.4398V4.39977H59.0257V13.5998C59.0257 14.5064 58.879 15.3331 58.5857 16.0798C58.3057 16.8264 57.799 17.4264 57.0657 17.8798C56.3457 18.3198 55.3257 18.5398 54.0057 18.5398ZM68.3316 18.5398C67.065 18.5398 65.905 18.2664 64.8516 17.7198C63.8116 17.1731 62.9783 16.3664 62.3516 15.2998C61.7383 14.2198 61.4316 12.8931 61.4316 11.3198C61.4316 10.1331 61.6116 9.0931 61.9716 8.19977C62.345 7.2931 62.8516 6.5331 63.4916 5.91976C64.145 5.30643 64.885 4.84643 65.7116 4.53976C66.5383 4.2331 67.4116 4.07976 68.3316 4.07976C69.5983 4.07976 70.7516 4.3531 71.7916 4.89976C72.845 5.44643 73.6783 6.25977 74.2916 7.33977C74.9183 8.40643 75.2316 9.7331 75.2316 11.3198C75.2316 12.8931 74.925 14.2198 74.3116 15.2998C73.7116 16.3664 72.8916 17.1731 71.8516 17.7198C70.8116 18.2664 69.6383 18.5398 68.3316 18.5398ZM68.3316 15.7998C69.105 15.7998 69.765 15.6131 70.3116 15.2398C70.8583 14.8664 71.2783 14.3464 71.5716 13.6798C71.865 12.9998 72.0116 12.2131 72.0116 11.3198C72.0116 10.4131 71.865 9.62643 71.5716 8.95976C71.2783 8.27976 70.8583 7.7531 70.3116 7.37977C69.765 7.00643 69.105 6.81977 68.3316 6.81977C67.5583 6.81977 66.8983 7.0131 66.3516 7.39976C65.805 7.7731 65.385 8.29976 65.0916 8.97977C64.7983 9.64643 64.6516 10.4264 64.6516 11.3198C64.6516 12.2131 64.7983 12.9998 65.0916 13.6798C65.385 14.3464 65.805 14.8664 66.3516 15.2398C66.8983 15.6131 67.5583 15.7998 68.3316 15.7998ZM70.5516 3.03976C70.1383 3.03976 69.7783 2.90643 69.4716 2.63977C69.165 2.35976 69.0116 1.98643 69.0116 1.51977C69.0116 1.0531 69.165 0.686432 69.4716 0.419765C69.7783 0.139765 70.1383 -0.000235319 70.5516 -0.000235319C70.965 -0.000235319 71.325 0.139765 71.6316 0.419765C71.9383 0.686432 72.0916 1.0531 72.0916 1.51977C72.0916 1.98643 71.9383 2.35976 71.6316 2.63977C71.325 2.90643 70.965 3.03976 70.5516 3.03976ZM66.1116 3.03976C65.6983 3.03976 65.3383 2.90643 65.0316 2.63977C64.725 2.35976 64.5716 1.98643 64.5716 1.51977C64.5716 1.0531 64.725 0.686432 65.0316 0.419765C65.3383 0.139765 65.6983 -0.000235319 66.1116 -0.000235319C66.525 -0.000235319 66.885 0.139765 67.1916 0.419765C67.4983 0.686432 67.6516 1.0531 67.6516 1.51977C67.6516 1.98643 67.4983 2.35976 67.1916 2.63977C66.885 2.90643 66.525 3.03976 66.1116 3.03976ZM77.8324 18.2598V4.39977H80.9524V9.69976H86.1924V4.39977H89.3124V18.2598H86.1924V12.3798H80.9524V18.2598H77.8324ZM98.8199 18.5398C97.5533 18.5398 96.3933 18.2664 95.3399 17.7198C94.2999 17.1731 93.4666 16.3664 92.8399 15.2998C92.2266 14.2198 91.9199 12.8931 91.9199 11.3198C91.9199 10.1331 92.0999 9.0931 92.4599 8.19977C92.8333 7.2931 93.3399 6.5331 93.9799 5.91976C94.6333 5.30643 95.3733 4.84643 96.1999 4.53976C97.0266 4.2331 97.8999 4.07976 98.8199 4.07976C100.087 4.07976 101.24 4.3531 102.28 4.89976C103.333 5.44643 104.167 6.25977 104.78 7.33977C105.407 8.40643 105.72 9.7331 105.72 11.3198C105.72 12.8931 105.413 14.2198 104.8 15.2998C104.2 16.3664 103.38 17.1731 102.34 17.7198C101.3 18.2664 100.127 18.5398 98.8199 18.5398ZM98.8199 15.7998C99.5933 15.7998 100.253 15.6131 100.8 15.2398C101.347 14.8664 101.767 14.3464 102.06 13.6798C102.353 12.9998 102.5 12.2131 102.5 11.3198C102.5 10.4131 102.353 9.62643 102.06 8.95976C101.767 8.27976 101.347 7.7531 100.8 7.37977C100.253 7.00643 99.5933 6.81977 98.8199 6.81977C98.0466 6.81977 97.3866 7.0131 96.8399 7.39976C96.2933 7.7731 95.8733 8.29976 95.5799 8.97977C95.2866 9.64643 95.1399 10.4264 95.1399 11.3198C95.1399 12.2131 95.2866 12.9998 95.5799 13.6798C95.8733 14.3464 96.2933 14.8664 96.8399 15.2398C97.3866 15.6131 98.0466 15.7998 98.8199 15.7998ZM108.321 18.2598V4.39977H111.441V15.5798H117.581V18.2598H108.321ZM119.19 18.2598C119.244 17.1664 119.304 16.0064 119.37 14.7798C119.45 13.5398 119.537 12.2998 119.63 11.0598C119.724 9.80643 119.824 8.6131 119.93 7.47976C120.037 6.3331 120.157 5.30643 120.29 4.39977H123.27C123.51 4.83977 123.784 5.38643 124.09 6.03977C124.397 6.67977 124.717 7.37977 125.05 8.13976C125.397 8.89976 125.737 9.6731 126.07 10.4598C126.417 11.2331 126.737 11.9664 127.03 12.6598C127.324 11.9664 127.637 11.2331 127.97 10.4598C128.317 9.6731 128.657 8.89976 128.99 8.13976C129.337 7.37977 129.664 6.67977 129.97 6.03977C130.277 5.38643 130.55 4.83977 130.79 4.39977H133.63C133.764 5.30643 133.884 6.3331 133.99 7.47976C134.097 8.6131 134.197 9.80643 134.29 11.0598C134.384 12.2998 134.464 13.5398 134.53 14.7798C134.61 16.0064 134.677 17.1664 134.73 18.2598H131.69C131.664 17.3531 131.63 16.3998 131.59 15.3998C131.55 14.3864 131.504 13.3464 131.45 12.2798C131.397 11.1998 131.324 10.1264 131.23 9.05977C131.044 9.5131 130.837 9.99977 130.61 10.5198C130.384 11.0398 130.15 11.5798 129.91 12.1398C129.67 12.6864 129.437 13.2264 129.21 13.7598C128.984 14.2931 128.77 14.7998 128.57 15.2798C128.37 15.7464 128.197 16.1531 128.05 16.4998H125.87C125.724 16.1531 125.55 15.7464 125.35 15.2798C125.15 14.7998 124.937 14.2931 124.71 13.7598C124.484 13.2264 124.25 12.6864 124.01 12.1398C123.77 11.5798 123.537 11.0398 123.31 10.5198C123.084 9.99977 122.877 9.5131 122.69 9.05977C122.61 10.1264 122.537 11.1998 122.47 12.2798C122.417 13.3464 122.37 14.3864 122.33 15.3998C122.29 16.3998 122.257 17.3531 122.23 18.2598H119.19Z" fill="white"/>
</svg>
